<svg width="1440" height="1024" viewBox="0 0 1440 1024" fill="none" xmlns="http://www.w3.org/2000/svg">
<rect width="1440" height="1024" fill="#040D21"/>
<path d="M1242.82 863.554L1353.61 893.239L1272.51 974.342L1242.82 863.554Z" fill="#FF856E" fill-opacity="0.7"/>
<path d="M1139 932.729L1212.5 890.294V975.164L1139 932.729Z" fill="#FF856E" fill-opacity="0.7"/>
<path d="M1231.48 747.742L1367.86 711.198L1331.32 847.582L1231.48 747.742Z" fill="#FF856E" fill-opacity="0.7"/>
<path d="M194.234 184.474L83.4461 154.788L164.549 73.6856L194.234 184.474Z" fill="#FF856E" fill-opacity="0.25"/>
<path d="M298.059 115.298L224.559 157.734V72.8631L298.059 115.298Z" fill="#FF856E" fill-opacity="0.25"/>
<path d="M205.582 300.286L69.1975 336.83L105.742 200.445L205.582 300.286Z" fill="#FF856E" fill-opacity="0.25"/>
<line x1="1272.65" y1="166.646" x2="1439.65" y2="-0.353547" stroke="#FF856E"/>
<line x1="4.64645" y1="1019.65" x2="171.646" y2="852.646" stroke="#FF856E"/>
<line x1="1278.65" y1="170.646" x2="1445.65" y2="3.64645" stroke="#FF856E"/>
<line x1="10.6464" y1="1023.65" x2="177.646" y2="856.646" stroke="#FF856E"/>
<line x1="1267.65" y1="162.646" x2="1434.65" y2="-4.35355" stroke="#FF856E"/>
<line x1="-0.353553" y1="1015.65" x2="166.646" y2="848.646" stroke="#FF856E"/>
</svg>
