<svg width="413" height="392" viewBox="0 0 413 392" fill="none" xmlns="http://www.w3.org/2000/svg">
<path fill-rule="evenodd" clip-rule="evenodd" d="M278.189 121.73C278.544 122.084 278.893 122.442 279.238 122.802L231.874 170.167L232.581 170.874L279.925 123.53C280.381 124.02 280.828 124.516 281.267 125.016L233.995 172.288L234.702 172.995L281.922 125.775C282.357 126.287 282.784 126.803 283.201 127.324L236.116 174.409L236.823 175.116L283.825 128.115C284.239 128.648 284.644 129.186 285.04 129.728L238.238 176.53L238.945 177.238L285.631 130.551C286.023 131.107 286.407 131.666 286.78 132.23L240.359 178.652L241.066 179.359L287.338 133.087C287.709 133.665 288.069 134.247 288.42 134.833L242.48 180.773L243.187 181.48L288.944 135.724C289.291 136.325 289.628 136.931 289.956 137.54L244.602 182.894L245.309 183.602L290.444 138.466C290.767 139.092 291.08 139.722 291.383 140.356L246.723 185.016L247.43 185.723L291.834 141.319C292.133 141.97 292.42 142.626 292.697 143.284L248.844 187.137L249.551 187.844L293.109 144.287C293.381 144.965 293.642 145.647 293.891 146.333L250.966 189.258L251.673 189.966L294.261 147.377C294.506 148.084 294.738 148.795 294.958 149.509L253.087 191.38L253.794 192.087L295.284 150.597C295.498 151.336 295.699 152.077 295.888 152.822L255.208 193.501L255.915 194.208L296.165 153.958C296.347 154.731 296.514 155.506 296.668 156.284L257.329 195.622L258.037 196.329L296.893 157.473C297.038 158.284 297.169 159.096 297.285 159.91L259.451 197.744L260.158 198.451L297.45 161.159C297.555 162.011 297.644 162.865 297.717 163.721L261.572 199.865L262.279 200.572L297.815 165.036C297.874 165.937 297.915 166.84 297.938 167.742L263.693 201.986L264.401 202.693L297.959 169.135C297.963 170.094 297.947 171.053 297.911 172.011L265.815 204.108L266.522 204.815L297.839 173.497C297.778 174.526 297.693 175.554 297.585 176.58L267.936 206.229L268.643 206.936L297.397 178.183C297.252 179.302 297.079 180.418 296.878 181.53L270.057 208.35L270.764 209.057L296.536 183.286C296.277 184.529 295.983 185.767 295.653 186.997L272.179 210.472L272.886 211.179L295.091 188.974C294.658 190.41 294.177 191.835 293.647 193.246L274.3 212.593L275.007 213.3L292.715 195.593C291.953 197.408 291.109 199.197 290.182 200.954L276.421 214.714L277.128 215.421L288.354 204.196C285.571 208.827 282.182 213.196 278.189 217.189C251.829 243.55 209.09 243.55 182.73 217.189C156.369 190.829 156.369 148.09 182.73 121.73C182.848 121.612 182.966 121.494 183.085 121.377L183.79 122.083L191.668 114.206C194.024 112.548 196.462 111.058 198.965 109.737L185.205 123.497L185.912 124.205L201.783 108.333C203.391 107.579 205.022 106.892 206.673 106.272L187.326 125.619L188.033 126.326L208.869 105.49C210.209 105.038 211.561 104.631 212.921 104.266L189.447 127.74L190.154 128.447L214.814 103.788C216 103.507 217.192 103.258 218.389 103.041L191.569 129.861L192.276 130.569L220.088 102.756C221.169 102.589 222.253 102.448 223.339 102.334L193.69 131.983L194.397 132.69L224.899 102.187C225.901 102.105 226.904 102.045 227.908 102.007L195.811 134.104L196.518 134.811L229.361 101.968C230.3 101.953 231.238 101.957 232.177 101.981L197.933 136.225L198.64 136.933L233.543 102.029C234.429 102.07 235.314 102.127 236.198 102.202L200.054 138.347L200.761 139.054L237.49 102.324C238.331 102.412 239.171 102.515 240.009 102.634L202.175 140.468L202.882 141.175L241.237 102.82C242.038 102.949 242.838 103.093 243.635 103.251L204.296 142.589L205.004 143.296L244.807 103.493C245.573 103.659 246.336 103.839 247.097 104.031L206.418 144.711L207.125 145.418L248.217 104.325C248.951 104.525 249.682 104.736 250.41 104.961L208.539 146.832L209.246 147.539L251.483 105.302C252.187 105.532 252.888 105.774 253.586 106.028L210.66 148.953L211.368 149.66L254.616 106.412C255.292 106.671 255.965 106.941 256.635 107.222L212.782 151.075L213.489 151.782L257.624 107.647C258.274 107.932 258.921 108.229 259.563 108.536L214.903 153.196L215.61 153.903L260.514 108.999C261.14 109.31 261.761 109.631 262.379 109.963L217.024 155.317L217.731 156.024L263.293 110.463C263.895 110.798 264.492 111.144 265.086 111.499L219.146 157.439L219.853 158.146L265.965 112.034C266.544 112.393 267.118 112.761 267.688 113.139L221.267 159.56L221.974 160.267L268.533 113.708C269.09 114.089 269.643 114.479 270.19 114.879L223.388 161.681L224.095 162.388L271.003 115.481C271.538 115.884 272.069 116.297 272.595 116.718L225.51 163.803L226.217 164.51L273.374 117.352C273.889 117.777 274.398 118.21 274.903 118.652L227.631 165.924L228.338 166.631L275.651 119.318C276.145 119.764 276.633 120.218 277.117 120.681L229.752 168.045L230.459 168.752L277.834 121.377C277.953 121.494 278.071 121.612 278.189 121.73Z" fill="url(#paint0_linear)" fill-opacity="0.5"/>
<path fill-rule="evenodd" clip-rule="evenodd" d="M316.018 32.0183C316.097 31.9391 316.177 31.8603 316.256 31.7819L316.73 32.2554L322.014 26.9709C323.272 26.0855 324.565 25.2717 325.888 24.5294L317.446 32.9713L318.153 33.6784L328.8 23.0317C329.631 22.6416 330.473 22.2781 331.322 21.9414L318.869 34.3944L319.576 35.1015L333.553 21.124C334.241 20.8925 334.933 20.678 335.629 20.4805L320.292 35.8174L320.999 36.5245L337.541 19.9825C338.147 19.8387 338.756 19.7075 339.366 19.589L321.715 37.2404L322.422 37.9475L341.079 19.2904C341.63 19.2052 342.183 19.1302 342.736 19.0653L323.138 38.6635L323.845 39.3706L344.307 18.9088C344.817 18.8669 345.328 18.8336 345.839 18.8089L324.561 40.0865L325.268 40.7936L347.3 18.7618C347.777 18.7541 348.255 18.7539 348.732 18.7612L325.984 41.5095L326.691 42.2166L350.105 18.8028C350.555 18.8233 351.006 18.8505 351.455 18.8843L327.407 42.9326L328.114 43.6397L352.753 19.0007C353.18 19.0452 353.607 19.0957 354.033 19.1523L328.83 44.3556L329.537 45.0627L355.266 19.3334C355.673 19.3989 356.08 19.4699 356.485 19.5466L330.253 45.7786L330.96 46.4857L357.661 19.7849C358.05 19.8691 358.438 19.9585 358.825 20.053L331.676 47.2017L332.383 47.9088L359.949 20.3429C360.321 20.4441 360.693 20.5501 361.063 20.6609L333.099 48.6247L333.806 49.3318L362.14 20.998C362.497 21.1148 362.853 21.2361 363.208 21.3619L334.522 50.0477L335.229 50.7549L364.241 21.7428C364.584 21.874 364.926 22.0095 365.267 22.1494L335.945 51.4708L336.652 52.1779L366.259 22.5711C366.589 22.7159 366.917 22.8649 367.244 23.0179L337.368 52.8938L338.075 53.6009L368.198 23.4783C368.515 23.636 368.831 23.7976 369.145 23.9632L338.791 54.3168L339.498 55.024L370.062 24.4604C370.367 24.6303 370.671 24.8041 370.973 24.9817L340.214 55.7399L340.921 56.447L371.854 25.5141C372.148 25.6959 372.44 25.8814 372.73 26.0705L341.637 57.1629L342.344 57.87L373.578 26.6369C373.86 26.8301 374.14 27.0269 374.419 27.2272L343.06 58.5859L343.768 59.2931L375.234 27.8266C375.505 28.0309 375.775 28.2387 376.043 28.4499L344.483 60.009L345.191 60.7161L376.825 29.0816C377.086 29.2967 377.344 29.5153 377.601 29.7371L345.906 61.432L346.614 62.1391L378.352 30.4004C378.602 30.6262 378.851 30.8553 379.097 31.0877L347.33 62.8551L348.037 63.5622L379.817 31.782C379.896 31.8604 379.976 31.9391 380.055 32.0183C380.215 32.1781 380.373 32.3389 380.53 32.5005L348.753 64.2781L349.46 64.9852L381.219 33.2257C381.45 33.4737 381.677 33.7237 381.901 33.9756L350.176 65.7011L350.883 66.4082L382.559 34.7319C382.779 34.9906 382.996 35.2512 383.209 35.5136L351.599 67.1242L352.306 67.8313L383.835 36.3016C384.045 36.5712 384.251 36.8426 384.453 37.1157L353.022 68.5472L353.729 69.2543L385.047 37.9361C385.245 38.2167 385.44 38.4992 385.632 38.7833L354.445 69.9702L355.152 70.6773L386.192 39.6368C386.38 39.9289 386.563 40.2227 386.743 40.5181L355.868 71.3933L356.575 72.1004L387.269 41.4059C387.445 41.7098 387.617 42.0154 387.785 42.3224L357.291 72.8163L357.998 73.5234L388.276 43.2457C388.439 43.5619 388.599 43.8797 388.754 44.1989L358.714 74.2393L359.421 74.9465L389.208 45.1592C389.359 45.4884 389.506 45.8189 389.648 46.1509L360.137 75.6624L360.844 76.3695L390.063 47.1501C390.201 47.4929 390.334 47.8371 390.463 48.1824L361.56 77.0854L362.267 77.7925L390.836 49.223C390.96 49.5803 391.079 49.9389 391.193 50.2985L362.983 78.5084L363.69 79.2155L391.522 51.3833C391.63 51.7563 391.734 52.1303 391.832 52.5054L364.406 79.9315L365.113 80.6386L392.114 53.6381C392.205 54.028 392.292 54.419 392.373 54.8108L365.829 81.3545L366.536 82.0616L392.602 55.996C392.675 56.4047 392.743 56.8143 392.805 57.2246L367.252 82.7776L367.959 83.4847L392.976 58.4681C393.029 58.8981 393.075 59.3286 393.116 59.7596L368.675 84.2006L369.382 84.9077L393.221 61.0693C393.25 61.5234 393.273 61.978 393.289 62.4327L370.098 85.6236L370.805 86.3307L393.317 63.8192C393.319 64.3018 393.314 64.7846 393.301 65.2671L371.521 87.0467L372.228 87.7538L393.237 66.7453C393.206 67.2627 393.166 67.7798 393.118 68.2961L372.944 88.4697L373.651 89.1768L392.94 69.8882C392.867 70.4501 392.784 71.0108 392.69 71.5701L374.367 89.8927L375.074 90.5998L392.362 73.3117C392.233 73.9342 392.09 74.5545 391.934 75.1721L375.79 91.3158L376.497 92.0229L391.393 77.1272C391.178 77.8423 390.944 78.5531 390.693 79.2589L377.213 92.7388L377.92 93.4459L389.799 81.5673C389.426 82.4578 389.022 83.3387 388.59 84.2085L378.636 94.1618L379.343 94.8689L386.874 87.3386C385.922 88.922 384.865 90.4597 383.703 91.9417L380.059 95.5849L380.291 95.8168C380.213 95.8964 380.134 95.9757 380.055 96.0549C362.372 113.738 333.702 113.738 316.018 96.0549C298.335 78.3716 298.335 49.7015 316.018 32.0183Z" fill="url(#paint1_linear)" fill-opacity="0.5"/>
<path fill-rule="evenodd" clip-rule="evenodd" d="M143.189 248.73C143.544 249.084 143.893 249.442 144.238 249.802L96.8736 297.167L97.5807 297.874L144.925 250.53C145.381 251.02 145.828 251.516 146.267 252.016L98.9949 299.288L99.7021 299.995L146.922 252.775C147.357 253.287 147.784 253.803 148.201 254.324L101.116 301.409L101.823 302.116L148.825 255.115C149.239 255.648 149.644 256.186 150.04 256.728L103.238 303.53L103.945 304.238L150.631 257.551C151.023 258.107 151.407 258.666 151.78 259.23L105.359 305.652L106.066 306.359L152.338 260.087C152.709 260.665 153.069 261.247 153.42 261.833L107.48 307.773L108.187 308.48L153.944 262.724C154.291 263.325 154.628 263.931 154.956 264.54L109.602 309.894L110.309 310.602L155.444 265.466C155.767 266.092 156.08 266.722 156.383 267.356L111.723 312.016L112.43 312.723L156.834 268.319C157.133 268.97 157.42 269.626 157.697 270.284L113.844 314.137L114.551 314.844L158.109 271.287C158.381 271.965 158.642 272.647 158.891 273.333L115.966 316.258L116.673 316.966L159.261 274.377C159.506 275.084 159.738 275.795 159.958 276.509L118.087 318.38L118.794 319.087L160.284 277.597C160.498 278.336 160.699 279.077 160.888 279.822L120.208 320.501L120.915 321.208L161.165 280.958C161.347 281.731 161.514 282.506 161.668 283.284L122.329 322.622L123.037 323.329L161.893 284.473C162.038 285.284 162.169 286.096 162.285 286.91L124.451 324.744L125.158 325.451L162.45 288.159C162.555 289.011 162.644 289.865 162.717 290.721L126.572 326.865L127.279 327.572L162.815 292.036C162.874 292.937 162.915 293.84 162.938 294.742L128.693 328.986L129.401 329.693L162.959 296.135C162.963 297.094 162.947 298.053 162.911 299.011L130.815 331.108L131.522 331.815L162.839 300.497C162.778 301.526 162.693 302.554 162.585 303.58L132.936 333.229L133.643 333.936L162.397 305.183C162.252 306.302 162.079 307.418 161.878 308.53L135.057 335.35L135.764 336.057L161.536 310.286C161.277 311.529 160.983 312.767 160.653 313.997L137.179 337.472L137.886 338.179L160.091 315.974C159.658 317.41 159.177 318.835 158.647 320.246L139.3 339.593L140.007 340.3L157.715 322.593C156.953 324.408 156.109 326.197 155.182 327.954L141.421 341.714L142.128 342.421L153.354 331.196C150.571 335.827 147.182 340.196 143.189 344.189C116.829 370.55 74.0901 370.55 47.7297 344.189C21.3693 317.829 21.3693 275.09 47.7297 248.73C47.8477 248.612 47.9659 248.494 48.0845 248.377L48.7904 249.083L56.668 241.206C59.0237 239.548 61.4617 238.058 63.9653 236.737L50.2046 250.497L50.9117 251.205L66.7828 235.333C68.3907 234.579 70.0222 233.892 71.6731 233.272L52.3259 252.619L53.033 253.326L73.8693 232.49C75.2094 232.038 76.5608 231.631 77.9215 231.266L54.4472 254.74L55.1543 255.447L79.8136 230.788C80.9996 230.507 82.1918 230.258 83.3887 230.041L56.5685 256.861L57.2756 257.569L85.0879 229.756C86.1686 229.589 87.2526 229.448 88.3389 229.334L58.6899 258.983L59.397 259.69L89.8995 229.187C90.9011 229.105 91.9041 229.045 92.9079 229.007L60.8112 261.104L61.5183 261.811L94.3612 228.968C95.2997 228.953 96.2384 228.957 97.1768 228.981L62.9325 263.225L63.6396 263.933L98.5427 229.029C99.4287 229.07 100.314 229.127 101.198 229.202L65.0538 265.347L65.7609 266.054L102.49 229.324C103.331 229.412 104.171 229.515 105.009 229.634L67.1751 267.468L67.8822 268.175L106.237 229.82C107.038 229.949 107.838 230.093 108.635 230.251L69.2965 269.589L70.0036 270.296L109.807 230.493C110.573 230.659 111.336 230.839 112.097 231.031L71.4178 271.711L72.1249 272.418L113.217 231.325C113.951 231.525 114.682 231.736 115.41 231.961L73.5391 273.832L74.2462 274.539L116.483 232.302C117.187 232.532 117.888 232.774 118.586 233.028L75.6604 275.953L76.3675 276.66L119.616 233.412C120.292 233.671 120.965 233.941 121.635 234.222L77.7817 278.075L78.4889 278.782L122.624 234.647C123.274 234.932 123.921 235.229 124.563 235.536L79.9031 280.196L80.6102 280.903L125.514 235.999C126.14 236.31 126.761 236.631 127.379 236.963L82.0244 282.317L82.7315 283.024L128.293 237.463C128.895 237.798 129.492 238.144 130.086 238.499L84.1457 284.439L84.8528 285.146L130.965 239.034C131.544 239.393 132.118 239.761 132.688 240.139L86.267 286.56L86.9741 287.267L133.533 240.708C134.09 241.089 134.643 241.479 135.19 241.879L88.3883 288.681L89.0955 289.388L136.003 242.481C136.538 242.884 137.069 243.297 137.595 243.718L90.5097 290.803L91.2168 291.51L138.374 244.352C138.889 244.777 139.398 245.21 139.903 245.652L92.631 292.924L93.3381 293.631L140.651 246.318C141.145 246.764 141.633 247.218 142.117 247.681L94.7523 295.045L95.4594 295.752L142.834 248.377C142.953 248.494 143.071 248.612 143.189 248.73Z" fill="url(#paint2_linear)" fill-opacity="0.3"/>
<defs>
<linearGradient id="paint0_linear" x1="278.543" y1="122.083" x2="183.083" y2="217.543" gradientUnits="userSpaceOnUse">
<stop stop-color="#FF856E"/>
<stop offset="1" stop-color="#FF856E" stop-opacity="0"/>
</linearGradient>
<linearGradient id="paint1_linear" x1="380.292" y1="32.2554" x2="316.255" y2="96.292" gradientUnits="userSpaceOnUse">
<stop stop-color="#FF856E"/>
<stop offset="1" stop-color="#FF856E" stop-opacity="0"/>
</linearGradient>
<linearGradient id="paint2_linear" x1="143.543" y1="249.083" x2="47.6259" y2="345" gradientUnits="userSpaceOnUse">
<stop stop-color="#FF856E"/>
<stop offset="1" stop-color="#FFD973"/>
</linearGradient>
</defs>
</svg>
