<svg width="808" height="508" viewBox="0 0 808 508" fill="none" xmlns="http://www.w3.org/2000/svg">
<g filter="url(#filter0_d)">
<rect width="800" height="500" rx="10" fill="#040D21"/>
<rect x="0.5" y="0.5" width="799" height="499" rx="9.5" stroke="url(#paint0_linear)" stroke-opacity="0.5"/>
</g>
<path fill-rule="evenodd" clip-rule="evenodd" d="M632.189 170.73C632.544 171.084 632.893 171.442 633.238 171.802L585.874 219.167L586.581 219.874L633.925 172.53C634.381 173.02 634.828 173.516 635.267 174.016L587.995 221.288L588.702 221.995L635.922 174.775C636.357 175.287 636.784 175.803 637.201 176.324L590.116 223.409L590.823 224.116L637.825 177.115C638.239 177.648 638.644 178.186 639.04 178.728L592.238 225.53L592.945 226.238L639.631 179.551C640.023 180.107 640.407 180.666 640.78 181.23L594.359 227.652L595.066 228.359L641.338 182.087C641.709 182.665 642.069 183.247 642.42 183.833L596.48 229.773L597.187 230.48L642.944 184.724C643.291 185.325 643.628 185.931 643.956 186.54L598.602 231.894L599.309 232.602L644.444 187.466C644.767 188.092 645.08 188.722 645.383 189.356L600.723 234.016L601.43 234.723L645.834 190.319C646.133 190.97 646.42 191.626 646.697 192.284L602.844 236.137L603.551 236.844L647.109 193.287C647.381 193.965 647.642 194.647 647.891 195.333L604.966 238.258L605.673 238.966L648.261 196.377C648.506 197.084 648.738 197.795 648.958 198.509L607.087 240.38L607.794 241.087L649.284 199.597C649.498 200.336 649.699 201.077 649.888 201.822L609.208 242.501L609.915 243.208L650.165 202.958C650.347 203.731 650.514 204.506 650.668 205.284L611.329 244.622L612.037 245.329L650.893 206.473C651.038 207.284 651.169 208.096 651.285 208.91L613.451 246.744L614.158 247.451L651.45 210.159C651.555 211.011 651.644 211.865 651.717 212.721L615.572 248.865L616.279 249.572L651.815 214.036C651.874 214.937 651.915 215.84 651.938 216.742L617.693 250.986L618.401 251.693L651.959 218.135C651.963 219.094 651.947 220.053 651.911 221.011L619.815 253.108L620.522 253.815L651.839 222.497C651.778 223.526 651.693 224.554 651.585 225.58L621.936 255.229L622.643 255.936L651.397 227.183C651.252 228.302 651.079 229.418 650.878 230.53L624.057 257.35L624.764 258.057L650.536 232.286C650.277 233.529 649.983 234.767 649.653 235.997L626.179 259.472L626.886 260.179L649.091 237.974C648.658 239.41 648.177 240.835 647.647 242.246L628.3 261.593L629.007 262.3L646.715 244.593C645.953 246.408 645.109 248.197 644.182 249.954L630.421 263.714L631.128 264.421L642.354 253.196C639.571 257.827 636.182 262.196 632.189 266.189C605.829 292.55 563.09 292.55 536.73 266.189C510.369 239.829 510.369 197.09 536.73 170.73C536.848 170.612 536.966 170.494 537.085 170.377L537.79 171.083L545.668 163.206C548.024 161.548 550.462 160.058 552.965 158.737L539.205 172.497L539.912 173.205L555.783 157.333C557.391 156.579 559.022 155.892 560.673 155.272L541.326 174.619L542.033 175.326L562.869 154.49C564.209 154.038 565.561 153.631 566.921 153.266L543.447 176.74L544.154 177.447L568.814 152.788C570 152.507 571.192 152.258 572.389 152.041L545.569 178.861L546.276 179.569L574.088 151.756C575.169 151.589 576.253 151.448 577.339 151.334L547.69 180.983L548.397 181.69L578.899 151.187C579.901 151.105 580.904 151.045 581.908 151.007L549.811 183.104L550.518 183.811L583.361 150.968C584.3 150.953 585.238 150.957 586.177 150.981L551.933 185.225L552.64 185.933L587.543 151.029C588.429 151.07 589.314 151.127 590.198 151.202L554.054 187.347L554.761 188.054L591.49 151.324C592.331 151.412 593.171 151.515 594.009 151.634L556.175 189.468L556.882 190.175L595.237 151.82C596.038 151.949 596.838 152.093 597.635 152.251L558.296 191.589L559.004 192.296L598.807 152.493C599.573 152.659 600.336 152.839 601.097 153.031L560.418 193.711L561.125 194.418L602.217 153.325C602.951 153.525 603.682 153.736 604.41 153.961L562.539 195.832L563.246 196.539L605.483 154.302C606.187 154.532 606.888 154.774 607.586 155.028L564.66 197.953L565.368 198.66L608.616 155.412C609.292 155.671 609.965 155.941 610.635 156.222L566.782 200.075L567.489 200.782L611.624 156.647C612.274 156.932 612.921 157.229 613.563 157.536L568.903 202.196L569.61 202.903L614.514 157.999C615.14 158.31 615.761 158.631 616.379 158.963L571.024 204.317L571.731 205.024L617.293 159.463C617.895 159.798 618.492 160.144 619.086 160.499L573.146 206.439L573.853 207.146L619.965 161.034C620.544 161.393 621.118 161.761 621.688 162.139L575.267 208.56L575.974 209.267L622.533 162.708C623.09 163.089 623.643 163.479 624.19 163.879L577.388 210.681L578.095 211.388L625.003 164.481C625.538 164.884 626.069 165.297 626.595 165.718L579.51 212.803L580.217 213.51L627.374 166.352C627.889 166.777 628.398 167.21 628.903 167.652L581.631 214.924L582.338 215.631L629.651 168.318C630.145 168.764 630.633 169.218 631.117 169.681L583.752 217.045L584.459 217.752L631.834 170.377C631.953 170.494 632.071 170.612 632.189 170.73Z" fill="url(#paint1_linear)" fill-opacity="0.5"/>
<path fill-rule="evenodd" clip-rule="evenodd" d="M670.018 81.0183C670.097 80.9391 670.177 80.8603 670.256 80.7819L670.73 81.2554L676.014 75.9709C677.272 75.0855 678.565 74.2717 679.888 73.5294L671.446 81.9713L672.153 82.6784L682.8 72.0317C683.631 71.6416 684.473 71.2781 685.322 70.9414L672.869 83.3944L673.576 84.1015L687.553 70.124C688.241 69.8925 688.933 69.678 689.629 69.4805L674.292 84.8174L674.999 85.5245L691.541 68.9825C692.147 68.8387 692.756 68.7075 693.366 68.589L675.715 86.2404L676.422 86.9475L695.079 68.2904C695.63 68.2052 696.183 68.1302 696.736 68.0653L677.138 87.6635L677.845 88.3706L698.307 67.9088C698.817 67.8669 699.328 67.8336 699.839 67.8089L678.561 89.0865L679.268 89.7936L701.3 67.7618C701.777 67.7541 702.255 67.7539 702.732 67.7612L679.984 90.5095L680.691 91.2166L704.105 67.8028C704.555 67.8233 705.006 67.8505 705.455 67.8843L681.407 91.9326L682.114 92.6397L706.753 68.0007C707.18 68.0452 707.607 68.0957 708.033 68.1523L682.83 93.3556L683.537 94.0627L709.266 68.3334C709.673 68.3989 710.08 68.4699 710.485 68.5466L684.253 94.7786L684.96 95.4857L711.661 68.7849C712.05 68.8691 712.438 68.9585 712.825 69.053L685.676 96.2017L686.383 96.9088L713.949 69.3429C714.321 69.4441 714.693 69.5501 715.063 69.6609L687.099 97.6247L687.806 98.3318L716.14 69.998C716.497 70.1148 716.853 70.2361 717.208 70.3619L688.522 99.0477L689.229 99.7549L718.241 70.7428C718.584 70.874 718.926 71.0095 719.267 71.1494L689.945 100.471L690.652 101.178L720.259 71.5711C720.589 71.7159 720.917 71.8649 721.244 72.0179L691.368 101.894L692.075 102.601L722.198 72.4783C722.515 72.636 722.831 72.7976 723.145 72.9632L692.791 103.317L693.498 104.024L724.062 73.4604C724.367 73.6303 724.671 73.8041 724.973 73.9817L694.214 104.74L694.921 105.447L725.854 74.5141C726.148 74.6959 726.44 74.8814 726.73 75.0705L695.637 106.163L696.344 106.87L727.578 75.6369C727.86 75.8301 728.14 76.0269 728.419 76.2272L697.06 107.586L697.768 108.293L729.234 76.8266C729.505 77.0309 729.775 77.2387 730.043 77.4499L698.483 109.009L699.191 109.716L730.825 78.0816C731.086 78.2967 731.344 78.5153 731.601 78.7371L699.906 110.432L700.614 111.139L732.352 79.4004C732.602 79.6262 732.851 79.8553 733.097 80.0877L701.33 111.855L702.037 112.562L733.817 80.782C733.896 80.8604 733.976 80.9391 734.055 81.0183C734.215 81.1781 734.373 81.3389 734.53 81.5005L702.753 113.278L703.46 113.985L735.219 82.2257C735.45 82.4737 735.677 82.7237 735.901 82.9756L704.176 114.701L704.883 115.408L736.559 83.7319C736.779 83.9906 736.996 84.2512 737.209 84.5136L705.599 116.124L706.306 116.831L737.835 85.3016C738.045 85.5712 738.251 85.8426 738.453 86.1157L707.022 117.547L707.729 118.254L739.047 86.9361C739.245 87.2167 739.44 87.4992 739.632 87.7833L708.445 118.97L709.152 119.677L740.192 88.6368C740.38 88.9289 740.563 89.2227 740.743 89.5181L709.868 120.393L710.575 121.1L741.269 90.4059C741.445 90.7098 741.617 91.0154 741.785 91.3224L711.291 121.816L711.998 122.523L742.276 92.2457C742.439 92.5619 742.599 92.8797 742.754 93.1989L712.714 123.239L713.421 123.946L743.208 94.1592C743.359 94.4884 743.506 94.8189 743.648 95.1509L714.137 124.662L714.844 125.369L744.063 96.1501C744.201 96.4929 744.334 96.8371 744.463 97.1824L715.56 126.085L716.267 126.793L744.836 98.223C744.96 98.5803 745.079 98.9389 745.193 99.2985L716.983 127.508L717.69 128.216L745.522 100.383C745.63 100.756 745.734 101.13 745.832 101.505L718.406 128.931L719.113 129.639L746.114 102.638C746.205 103.028 746.292 103.419 746.373 103.811L719.829 130.355L720.536 131.062L746.602 104.996C746.675 105.405 746.743 105.814 746.805 106.225L721.252 131.778L721.959 132.485L746.976 107.468C747.029 107.898 747.075 108.329 747.116 108.76L722.675 133.201L723.382 133.908L747.221 110.069C747.25 110.523 747.273 110.978 747.289 111.433L724.098 134.624L724.805 135.331L747.317 112.819C747.319 113.302 747.314 113.785 747.301 114.267L725.521 136.047L726.228 136.754L747.237 115.745C747.206 116.263 747.166 116.78 747.118 117.296L726.944 137.47L727.651 138.177L746.94 118.888C746.867 119.45 746.784 120.011 746.69 120.57L728.367 138.893L729.074 139.6L746.362 122.312C746.233 122.934 746.09 123.554 745.934 124.172L729.79 140.316L730.497 141.023L745.393 126.127C745.178 126.842 744.944 127.553 744.693 128.259L731.213 141.739L731.92 142.446L743.799 130.567C743.426 131.458 743.022 132.339 742.59 133.209L732.636 143.162L733.343 143.869L740.874 136.339C739.922 137.922 738.865 139.46 737.703 140.942L734.059 144.585L734.291 144.817C734.213 144.896 734.134 144.976 734.055 145.055C716.372 162.738 687.702 162.738 670.018 145.055C652.335 127.372 652.335 98.7015 670.018 81.0183Z" fill="url(#paint2_linear)" fill-opacity="0.5"/>
<path fill-rule="evenodd" clip-rule="evenodd" d="M497.189 297.73C497.544 298.084 497.893 298.442 498.238 298.802L450.874 346.167L451.581 346.874L498.925 299.53C499.381 300.02 499.828 300.516 500.267 301.016L452.995 348.288L453.702 348.995L500.922 301.775C501.357 302.287 501.784 302.803 502.201 303.324L455.116 350.409L455.823 351.116L502.825 304.115C503.239 304.648 503.644 305.186 504.04 305.728L457.238 352.53L457.945 353.238L504.631 306.551C505.023 307.107 505.407 307.666 505.78 308.23L459.359 354.652L460.066 355.359L506.338 309.087C506.709 309.665 507.069 310.247 507.42 310.833L461.48 356.773L462.187 357.48L507.944 311.724C508.291 312.325 508.628 312.931 508.956 313.54L463.602 358.894L464.309 359.602L509.444 314.466C509.767 315.092 510.08 315.722 510.383 316.356L465.723 361.016L466.43 361.723L510.834 317.319C511.133 317.97 511.42 318.626 511.697 319.284L467.844 363.137L468.551 363.844L512.109 320.287C512.381 320.965 512.642 321.647 512.891 322.333L469.966 365.258L470.673 365.966L513.261 323.377C513.506 324.084 513.738 324.795 513.958 325.509L472.087 367.38L472.794 368.087L514.284 326.597C514.498 327.336 514.699 328.077 514.888 328.822L474.208 369.501L474.915 370.208L515.165 329.958C515.347 330.731 515.514 331.506 515.668 332.284L476.329 371.622L477.037 372.329L515.893 333.473C516.038 334.284 516.169 335.096 516.285 335.91L478.451 373.744L479.158 374.451L516.45 337.159C516.555 338.011 516.644 338.865 516.717 339.721L480.572 375.865L481.279 376.572L516.815 341.036C516.874 341.937 516.915 342.84 516.938 343.742L482.693 377.986L483.401 378.693L516.959 345.135C516.963 346.094 516.947 347.053 516.911 348.011L484.815 380.108L485.522 380.815L516.839 349.497C516.778 350.526 516.693 351.554 516.585 352.58L486.936 382.229L487.643 382.936L516.397 354.183C516.252 355.302 516.079 356.418 515.878 357.53L489.057 384.35L489.764 385.057L515.536 359.286C515.277 360.529 514.983 361.767 514.653 362.997L491.179 386.472L491.886 387.179L514.091 364.974C513.658 366.41 513.177 367.835 512.647 369.246L493.3 388.593L494.007 389.3L511.715 371.593C510.953 373.408 510.109 375.197 509.182 376.954L495.421 390.714L496.128 391.421L507.354 380.196C504.571 384.827 501.182 389.196 497.189 393.189C470.829 419.55 428.09 419.55 401.73 393.189C375.369 366.829 375.369 324.09 401.73 297.73C401.848 297.612 401.966 297.494 402.085 297.377L402.79 298.083L410.668 290.206C413.024 288.548 415.462 287.058 417.965 285.737L404.205 299.497L404.912 300.205L420.783 284.333C422.391 283.579 424.022 282.892 425.673 282.272L406.326 301.619L407.033 302.326L427.869 281.49C429.209 281.038 430.561 280.631 431.921 280.266L408.447 303.74L409.154 304.447L433.814 279.788C435 279.507 436.192 279.258 437.389 279.041L410.569 305.861L411.276 306.569L439.088 278.756C440.169 278.589 441.253 278.448 442.339 278.334L412.69 307.983L413.397 308.69L443.899 278.187C444.901 278.105 445.904 278.045 446.908 278.007L414.811 310.104L415.518 310.811L448.361 277.968C449.3 277.953 450.238 277.957 451.177 277.981L416.933 312.225L417.64 312.933L452.543 278.029C453.429 278.07 454.314 278.127 455.198 278.202L419.054 314.347L419.761 315.054L456.49 278.324C457.331 278.412 458.171 278.515 459.009 278.634L421.175 316.468L421.882 317.175L460.237 278.82C461.038 278.949 461.838 279.093 462.635 279.251L423.296 318.589L424.004 319.296L463.807 279.493C464.573 279.659 465.336 279.839 466.097 280.031L425.418 320.711L426.125 321.418L467.217 280.325C467.951 280.525 468.682 280.736 469.41 280.961L427.539 322.832L428.246 323.539L470.483 281.302C471.187 281.532 471.888 281.774 472.586 282.028L429.66 324.953L430.368 325.66L473.616 282.412C474.292 282.671 474.965 282.941 475.635 283.222L431.782 327.075L432.489 327.782L476.624 283.647C477.274 283.932 477.921 284.229 478.563 284.536L433.903 329.196L434.61 329.903L479.514 284.999C480.14 285.31 480.761 285.631 481.379 285.963L436.024 331.317L436.731 332.024L482.293 286.463C482.895 286.798 483.492 287.144 484.086 287.499L438.146 333.439L438.853 334.146L484.965 288.034C485.544 288.393 486.118 288.761 486.688 289.139L440.267 335.56L440.974 336.267L487.533 289.708C488.09 290.089 488.643 290.479 489.19 290.879L442.388 337.681L443.095 338.388L490.003 291.481C490.538 291.884 491.069 292.297 491.595 292.718L444.51 339.803L445.217 340.51L492.374 293.352C492.889 293.777 493.398 294.21 493.903 294.652L446.631 341.924L447.338 342.631L494.651 295.318C495.145 295.764 495.633 296.218 496.117 296.681L448.752 344.045L449.459 344.752L496.834 297.377C496.953 297.494 497.071 297.612 497.189 297.73Z" fill="url(#paint3_linear)" fill-opacity="0.3"/>
<defs>
<filter id="filter0_d" x="0" y="0" width="808" height="508" filterUnits="userSpaceOnUse" color-interpolation-filters="sRGB">
<feFlood flood-opacity="0" result="BackgroundImageFix"/>
<feColorMatrix in="SourceAlpha" type="matrix" values="0 0 0 0 0 0 0 0 0 0 0 0 0 0 0 0 0 0 127 0" result="hardAlpha"/>
<feOffset dx="4" dy="4"/>
<feGaussianBlur stdDeviation="2"/>
<feComposite in2="hardAlpha" operator="out"/>
<feColorMatrix type="matrix" values="0 0 0 0 1 0 0 0 0 0.521569 0 0 0 0 0.431373 0 0 0 0.25 0"/>
<feBlend mode="normal" in2="BackgroundImageFix" result="effect1_dropShadow"/>
<feBlend mode="normal" in="SourceGraphic" in2="effect1_dropShadow" result="shape"/>
</filter>
<linearGradient id="paint0_linear" x1="0" y1="250" x2="800" y2="250" gradientUnits="userSpaceOnUse">
<stop stop-color="#FF856E"/>
<stop offset="1" stop-color="#FFD973"/>
</linearGradient>
<linearGradient id="paint1_linear" x1="632.543" y1="171.083" x2="537.083" y2="266.543" gradientUnits="userSpaceOnUse">
<stop stop-color="#FF856E"/>
<stop offset="1" stop-color="#FF856E" stop-opacity="0"/>
</linearGradient>
<linearGradient id="paint2_linear" x1="734.292" y1="81.2554" x2="670.255" y2="145.292" gradientUnits="userSpaceOnUse">
<stop stop-color="#FF856E"/>
<stop offset="1" stop-color="#FF856E" stop-opacity="0"/>
</linearGradient>
<linearGradient id="paint3_linear" x1="497.543" y1="298.083" x2="401.626" y2="394" gradientUnits="userSpaceOnUse">
<stop stop-color="#FF856E"/>
<stop offset="1" stop-color="#FFD973"/>
</linearGradient>
</defs>
</svg>
